Coordinates
version=1
nRows=54
nColumns=8
inDegrees=yes

"Units are S.I. units (second, meters, Newtons, ...)"
Angles are in degrees.

endheader
time	force_vx	force_vy	force_vz	force_px	force_py	force_pz	moment_vz
       4.021000	     -10.310000	     588.180000	     -30.350000	      -0.210000	       0.000000	       0.270000	      -0.960000
       4.022000	     -10.310000	     587.810000	     -30.350000	      -0.210000	       0.000000	       0.280000	      -0.980000
       4.023000	     -10.530000	     588.210000	     -30.570000	      -0.210000	       0.000000	       0.280000	      -1.060000
       4.024000	     -10.540000	     587.850000	     -30.790000	      -0.210000	       0.000000	       0.280000	      -1.050000
       4.025000	     -10.320000	     588.250000	     -30.790000	      -0.210000	       0.000000	       0.280000	      -1.050000
       4.026000	     -10.760000	     587.880000	     -30.780000	      -0.210000	       0.000000	       0.280000	      -1.030000
       4.027000	     -10.760000	     588.290000	     -31.000000	      -0.210000	       0.000000	       0.280000	      -1.090000
       4.028000	     -10.540000	     589.070000	     -31.220000	      -0.210000	       0.000000	       0.270000	      -1.130000
       4.029000	     -10.760000	     588.700000	     -31.220000	      -0.210000	       0.000000	       0.280000	      -1.090000
       4.030000	     -10.550000	     588.710000	     -31.220000	      -0.210000	       0.000000	       0.280000	      -1.090000
       4.031000	     -10.550000	     589.870000	     -31.220000	      -0.210000	       0.000000	       0.270000	      -1.170000
       4.032000	     -10.770000	     589.500000	     -31.660000	      -0.210000	       0.000000	       0.280000	      -1.150000
       4.033000	     -10.990000	     590.290000	     -31.430000	      -0.210000	       0.000000	       0.270000	      -1.130000
       4.034000	     -10.770000	     590.700000	     -31.650000	      -0.200000	       0.000000	       0.270000	      -1.180000
       4.035000	     -10.560000	     591.090000	     -31.660000	      -0.200000	       0.000000	       0.280000	      -1.250000
       4.036000	     -10.560000	     591.110000	     -31.660000	      -0.200000	       0.000000	       0.280000	      -1.260000
       4.037000	     -10.780000	     591.510000	     -31.870000	      -0.200000	       0.000000	       0.270000	      -1.200000
       4.038000	     -10.560000	     591.140000	     -32.100000	      -0.200000	       0.000000	       0.280000	      -1.320000
       4.039000	     -10.570000	     591.150000	     -32.310000	      -0.200000	       0.000000	       0.280000	      -1.230000
       4.040000	     -10.570000	     592.330000	     -32.100000	      -0.200000	       0.000000	       0.280000	      -1.280000
       4.041000	     -10.350000	     592.720000	     -32.100000	      -0.200000	       0.000000	       0.270000	      -1.340000
       4.042000	     -10.790000	     591.970000	     -32.310000	      -0.200000	       0.000000	       0.270000	      -1.300000
       4.043000	     -10.350000	     592.740000	     -32.540000	      -0.200000	       0.000000	       0.280000	      -1.310000
       4.044000	     -10.570000	     593.140000	     -32.310000	      -0.200000	       0.000000	       0.270000	      -1.370000
       4.045000	     -10.580000	     593.920000	     -32.750000	      -0.200000	       0.000000	       0.270000	      -1.400000
       4.046000	     -10.360000	     594.720000	     -32.750000	      -0.200000	       0.000000	       0.270000	      -1.400000
       4.047000	     -10.580000	     594.740000	     -32.750000	      -0.200000	       0.000000	       0.270000	      -1.370000
       4.048000	     -10.580000	     595.120000	     -32.970000	      -0.200000	       0.000000	       0.280000	      -1.350000
       4.049000	     -10.370000	     595.530000	     -33.190000	      -0.200000	       0.000000	       0.270000	      -1.470000
       4.050000	      -9.930000	     596.680000	     -33.630000	      -0.200000	       0.000000	       0.270000	      -1.460000
       4.051000	     -10.150000	     596.330000	     -33.410000	      -0.200000	       0.000000	       0.270000	      -1.460000
       4.052000	     -10.150000	     597.090000	     -33.630000	      -0.200000	       0.000000	       0.270000	      -1.430000
       4.053000	      -9.940000	     597.100000	     -33.850000	      -0.200000	       0.000000	       0.270000	      -1.540000
       4.054000	      -9.940000	     598.280000	     -33.630000	      -0.200000	       0.000000	       0.270000	      -1.510000
       4.055000	      -9.730000	     598.280000	     -34.080000	      -0.200000	       0.000000	       0.270000	      -1.520000
       4.056000	      -9.510000	     599.050000	     -34.080000	      -0.200000	       0.000000	       0.270000	      -1.590000
       4.057000	      -9.300000	     599.840000	     -34.740000	      -0.200000	       0.000000	       0.270000	      -1.580000
       4.058000	      -9.300000	     600.240000	     -34.520000	      -0.200000	       0.000000	       0.270000	      -1.620000
       4.059000	      -9.080000	     599.850000	     -34.740000	      -0.200000	       0.000000	       0.270000	      -1.660000
       4.060000	      -8.860000	     600.650000	     -34.750000	      -0.190000	       0.000000	       0.270000	      -1.660000
       4.061000	      -9.090000	     601.050000	     -34.960000	      -0.190000	       0.000000	       0.270000	      -1.670000
       4.062000	      -8.430000	     601.820000	     -34.970000	      -0.190000	       0.000000	       0.270000	      -1.690000
       4.063000	      -8.220000	     602.600000	     -35.200000	      -0.190000	       0.000000	       0.270000	      -1.650000
       4.064000	      -8.220000	     603.390000	     -35.200000	      -0.190000	       0.000000	       0.270000	      -1.740000
       4.065000	      -7.780000	     603.370000	     -35.420000	      -0.190000	       0.000000	       0.270000	      -1.680000
       4.066000	      -7.570000	     603.780000	     -35.650000	      -0.190000	       0.000000	       0.270000	      -1.730000
       4.067000	      -7.350000	     604.940000	     -35.650000	      -0.190000	       0.000000	       0.270000	      -1.790000
       4.068000	      -7.140000	     605.720000	     -35.870000	      -0.190000	       0.000000	       0.270000	      -1.750000
       4.069000	      -6.700000	     605.730000	     -36.100000	      -0.190000	       0.000000	       0.270000	      -1.770000
       4.070000	      -6.490000	     607.290000	     -36.100000	      -0.190000	       0.000000	       0.270000	      -1.770000
       4.071000	      -6.490000	     606.910000	     -36.320000	      -0.190000	       0.000000	       0.270000	      -1.760000
       4.072000	      -5.620000	     608.440000	     -36.340000	      -0.190000	       0.000000	       0.270000	      -1.830000
       4.073000	      -5.620000	     608.850000	     -36.770000	      -0.190000	       0.000000	       0.270000	      -1.870000
       4.074000	      -5.180000	     609.240000	     -36.560000	      -0.190000	       0.000000	       0.270000	      -1.790000
